<svg width="19" height="19" xmlns="http://www.w3.org/2000/svg" xmlns:xlink="http://www.w3.org/1999/xlink" overflow="hidden"><defs><clipPath id="clip0"><rect x="688" y="246" width="19" height="19"/></clipPath></defs><g clip-path="url(#clip0)" transform="translate(-688 -246)"><path d="M692.948 260.072C693.344 260.468 693.344 261.081 692.948 261.477L691.266 262.031 690.969 261.734 691.523 260.052C691.939 259.676 692.552 259.676 692.948 260.072ZM700.726 249.741 690.83 259.656 689.583 263.417 693.364 262.17 703.259 252.274"/><path d="M705.199 249.206 703.794 247.801C703.477 247.484 702.982 247.484 702.666 247.801L701.28 249.186 703.794 251.7 705.179 250.315C705.516 250.018 705.516 249.523 705.199 249.206Z"/></g></svg>